<?xml version="1.0" encoding="UTF-8" standalone="no"?>
<!-- Created with Inkscape (http://www.inkscape.org/) -->

<svg
   width="160"
   height="80"
   viewBox="0 0 150.00004 74.999998"
   id="svg2"
   version="1.1"
   inkscape:version="1.2.2 (b0a84865, 2022-12-01)"
   sodipodi:docname="logo_notext.svg"
   inkscape:export-filename="/Users/iLya2/switchdrive/Documents/VA Manager/vm_logo4.png"
   inkscape:export-xdpi="95.814445"
   inkscape:export-ydpi="95.814445"
   xmlns:inkscape="http://www.inkscape.org/namespaces/inkscape"
   xmlns:sodipodi="http://sodipodi.sourceforge.net/DTD/sodipodi-0.dtd"
   xmlns="http://www.w3.org/2000/svg"
   xmlns:svg="http://www.w3.org/2000/svg"
   xmlns:rdf="http://www.w3.org/1999/02/22-rdf-syntax-ns#"
   xmlns:cc="http://creativecommons.org/ns#"
   xmlns:dc="http://purl.org/dc/elements/1.1/">
  <defs
     id="defs4" />
  <sodipodi:namedview
     id="base"
     pagecolor="#ffffff"
     bordercolor="#666666"
     borderopacity="1.0"
     inkscape:pageopacity="0.0"
     inkscape:pageshadow="2"
     inkscape:zoom="2"
     inkscape:cx="166.25"
     inkscape:cy="75"
     inkscape:document-units="px"
     inkscape:current-layer="layer1"
     showgrid="false"
     fit-margin-top="0"
     fit-margin-left="0"
     fit-margin-right="0"
     fit-margin-bottom="0"
     inkscape:window-width="1198"
     inkscape:window-height="758"
     inkscape:window-x="150"
     inkscape:window-y="38"
     inkscape:window-maximized="0"
     units="px"
     inkscape:showpageshadow="2"
     inkscape:pagecheckerboard="0"
     inkscape:deskcolor="#d1d1d1" />
  <metadata
     id="metadata7">
    <rdf:RDF>
      <cc:Work
         rdf:about="">
        <dc:format>image/svg+xml</dc:format>
        <dc:type
           rdf:resource="http://purl.org/dc/dcmitype/StillImage" />
      </cc:Work>
    </rdf:RDF>
  </metadata>
  <g
     inkscape:label="Layer 1"
     inkscape:groupmode="layer"
     id="layer1"
     style="display:inline"
     transform="translate(-227.40322,-558.45439)">
    <flowRoot
       xml:space="preserve"
       id="flowRoot39"
       style="font-style:normal;font-weight:normal;font-size:40px;line-height:125%;font-family:sans-serif;letter-spacing:0px;word-spacing:0px;fill:#000000;fill-opacity:1;stroke:none;stroke-width:1px;stroke-linecap:butt;stroke-linejoin:miter;stroke-opacity:1"
       transform="matrix(0.93750014,0,0,0.93750014,47.114737,106.82752)"><flowRegion
         id="flowRegion41"><rect
           id="rect43"
           width="120.51282"
           height="166.66667"
           x="517.94873"
           y="63.16576" /></flowRegion><flowPara
         id="flowPara45">Verbal</flowPara></flowRoot>
    <flowRoot
       xml:space="preserve"
       id="flowRoot59"
       style="font-style:normal;font-weight:normal;font-size:40px;line-height:125%;font-family:sans-serif;letter-spacing:0px;word-spacing:0px;fill:#000000;fill-opacity:1;stroke:none;stroke-width:1px;stroke-linecap:butt;stroke-linejoin:miter;stroke-opacity:1"><flowRegion
         id="flowRegion61"><rect
           id="rect63"
           width="184.61539"
           height="69.230766"
           x="487.17947"
           y="447.78116" /></flowRegion><flowPara
         id="flowPara65" /></flowRoot>
    <path
       d="m 242.83214,564.92983 c -1.74765,0 -3.16928,1.49328 -3.16928,3.32872 v 55.18893 c 0,1.83544 1.42183,3.32872 3.16928,3.32872 h 31.82002 c 1.74765,0 3.16949,-1.49328 3.16949,-3.32872 v -9.76785 c -0.90307,-1.16061 -1.88568,-2.27313 -2.95023,-3.32892 v 0.93219 H 242.6133 v -37.05701 h 32.25812 v 2.41056 a 17.673275,17.542673 0 0 1 2.95023,1.60805 v -9.98595 c 3.9e-4,-1.83565 -1.42184,-3.32872 -3.16928,-3.32872 z m 0,3.09862 h 31.82002 c 0.11665,0 0.21905,0.1076 0.21905,0.2301 v 2.86852 H 242.6133 v -2.86852 c 0,-0.12271 0.10239,-0.2301 0.21884,-0.2301 z m -0.21884,46.35306 h 32.25812 v 9.06577 c 0,0.1225 -0.1026,0.23009 -0.21905,0.23009 h -31.82023 c -0.11665,0 -0.21884,-0.10759 -0.21884,-0.23009 z"
       id="path10"
       inkscape:connector-curvature="0"
       style="stroke-width:0.10493353" />
    <path
       inkscape:connector-curvature="0"
       id="path12"
       d="m 263.04587,617.48013 h -6.26331 c -0.86496,0 -1.56582,0.69368 -1.56582,1.54932 0,0.85564 0.70086,1.54933 1.56582,1.54933 h 6.26331 c 0.86496,0 1.56582,-0.69369 1.56582,-1.54933 0,-0.85564 -0.70086,-1.54932 -1.56582,-1.54932 z"
       style="stroke-width:0.10810807" />
    <path
       style="display:inline;fill:#000080;fill-rule:evenodd;stroke:none;stroke-width:0.10638355;stroke-linecap:round;stroke-linejoin:round;stroke-miterlimit:4;stroke-dasharray:none;stroke-opacity:1"
       d="m 244.00525,576.16629 c -0.15127,0 -0.27307,0.0989 -0.27307,0.22197 v 2.29022 c 0,0.12302 0.1218,0.22197 0.27307,0.22197 h 14.04487 a 18.758785,17.542673 0 0 1 5.41515,-2.73416 z"
       id="rect4258"
       inkscape:connector-curvature="0" />
    <path
       style="display:inline;fill:#000080;fill-rule:evenodd;stroke:none;stroke-width:0.10638355;stroke-linecap:round;stroke-linejoin:round;stroke-miterlimit:4;stroke-dasharray:none;stroke-opacity:1"
       d="m 244.00525,580.62558 c -0.15127,0 -0.27307,0.0992 -0.27307,0.22218 v 2.29002 c 0,0.12301 0.1218,0.22217 0.27307,0.22217 h 9.7424 a 18.758785,17.542673 0 0 1 2.28524,-2.73437 z"
       id="path4263"
       inkscape:connector-curvature="0" />
    <path
       style="display:inline;fill:#000080;fill-rule:evenodd;stroke:none;stroke-width:0.10638355;stroke-linecap:round;stroke-linejoin:round;stroke-miterlimit:4;stroke-dasharray:none;stroke-opacity:1"
       d="m 244.00525,584.75478 c -0.15127,0 -0.27307,0.099 -0.27307,0.22196 v 2.29023 c 0,0.12301 0.1218,0.22197 0.27307,0.22197 h 7.67758 a 18.758785,17.542673 0 0 1 1.21139,-2.73416 z"
       id="path4265"
       inkscape:connector-curvature="0" />
    <path
       style="display:inline;fill:#000080;fill-rule:evenodd;stroke:none;stroke-width:0.10638355;stroke-linecap:round;stroke-linejoin:round;stroke-miterlimit:4;stroke-dasharray:none;stroke-opacity:1"
       d="m 244.00525,589.21427 c -0.15127,0 -0.27307,0.099 -0.27307,0.22197 v 2.29002 c 0,0.12302 0.1218,0.22218 0.27307,0.22218 h 6.8599 a 18.758785,17.542673 0 0 1 0.34019,-2.73417 z"
       id="path4267"
       inkscape:connector-curvature="0" />
    <path
       style="display:inline;fill:#000080;fill-rule:evenodd;stroke:none;stroke-width:0.10638355;stroke-linecap:round;stroke-linejoin:round;stroke-miterlimit:4;stroke-dasharray:none;stroke-opacity:1"
       d="m 244.00525,593.50852 c -0.15127,0 -0.27307,0.099 -0.27307,0.22197 v 2.29002 c 0,0.12301 0.1218,0.22217 0.27307,0.22217 h 7.21895 a 18.758785,17.542673 0 0 1 -0.37111,-2.73416 z"
       id="path4269"
       inkscape:connector-curvature="0" />
    <path
       style="display:inline;fill:#000080;fill-rule:evenodd;stroke:none;stroke-width:0.10638355;stroke-linecap:round;stroke-linejoin:round;stroke-miterlimit:4;stroke-dasharray:none;stroke-opacity:1"
       d="m 244.00525,597.96782 c -0.15127,0 -0.27307,0.0992 -0.27307,0.22217 v 2.29002 c 0,0.12301 0.1218,0.22197 0.27307,0.22197 h 8.86923 a 18.758785,17.542673 0 0 1 -1.173,-2.73416 z"
       id="path4271"
       inkscape:connector-curvature="0" />
    <path
       style="display:inline;fill:#000080;fill-rule:evenodd;stroke:none;stroke-width:0.10638355;stroke-linecap:round;stroke-linejoin:round;stroke-miterlimit:4;stroke-dasharray:none;stroke-opacity:1"
       d="m 244.00525,602.097 c -0.15127,0 -0.27307,0.099 -0.27307,0.22197 v 2.29022 c 0,0.12302 0.1218,0.22197 0.27307,0.22197 h 12.00834 A 18.758785,17.542673 0 0 1 253.7301,602.097 Z"
       id="path4273"
       inkscape:connector-curvature="0" />
    <path
       style="display:inline;fill:#000080;fill-rule:evenodd;stroke:none;stroke-width:0.10638355;stroke-linecap:round;stroke-linejoin:round;stroke-miterlimit:4;stroke-dasharray:none;stroke-opacity:1"
       d="m 244.00525,606.5563 c -0.15127,0 -0.27307,0.0992 -0.27307,0.22217 v 2.29002 c 0,0.12302 0.1218,0.22217 0.27307,0.22217 h 19.4576 a 18.758785,17.542673 0 0 1 -5.38751,-2.73436 z"
       id="path4275"
       inkscape:connector-curvature="0" />
    <path
       style="display:inline;fill:none;fill-opacity:1;stroke:#000000;stroke-width:1.9494822;stroke-linecap:butt;stroke-linejoin:round;stroke-miterlimit:4;stroke-dasharray:none;stroke-opacity:1"
       d="m 286.4167,592.81201 a 16.395914,15.194903 0 0 1 -16.39591,15.19491 16.395914,15.194903 0 0 1 -16.39591,-15.19491 16.395914,15.194903 0 0 1 16.39591,-15.1949 16.395914,15.194903 0 0 1 16.39591,15.1949 z"
       id="path4150"
       inkscape:connector-curvature="0" />
    <path
       id="path5"
       d="m 275.09735,582.65882 h -11.48878 c -0.77141,0 -1.39958,0.56271 -1.39958,1.25313 v 17.92759 c 0,0.69146 0.62817,1.2533 1.39958,1.2533 h 14.07271 c 0.77209,0 1.39968,-0.56184 1.39968,-1.2533 v -15.30595 z m 0.33034,1.87516 1.74606,1.69874 h -1.74606 z m 2.47779,17.3056 c 0,0.11038 -0.10094,0.201 -0.22483,0.201 h -14.07208 c -0.12369,0 -0.22405,-0.0906 -0.22405,-0.201 v -17.92763 c 0,-0.11064 0.10036,-0.2003 0.22405,-0.2003 h 10.64301 v 3.04744 c 0,0.29015 0.26403,0.52537 0.58834,0.52537 h 3.06556 z m -12.44733,-13.58402 h 9.9821 c 0.24317,0 0.4404,0.17656 0.4404,0.39423 0,0.21768 -0.19723,0.39424 -0.4404,0.39424 h -9.9821 c -0.24312,0 -0.4404,-0.17656 -0.4404,-0.39424 0,-0.21763 0.19728,-0.39423 0.4404,-0.39423 z m 10.4225,3.04349 c 0,0.21763 -0.19723,0.39423 -0.4404,0.39423 h -9.9821 c -0.24312,0 -0.4404,-0.17655 -0.4404,-0.39423 0,-0.21768 0.19728,-0.39424 0.4404,-0.39424 h 9.9821 c 0.24317,0 0.4404,0.1766 0.4404,0.39424 z m 0,2.5625 c 0,0.21767 -0.19723,0.39423 -0.4404,0.39423 h -9.9821 c -0.24312,0 -0.4404,-0.17656 -0.4404,-0.39423 0,-0.21768 0.19728,-0.39424 0.4404,-0.39424 h 9.9821 c 0.24317,0 0.4404,0.17656 0.4404,0.39424 z m 0,2.60613 c 0,0.21768 -0.19723,0.39424 -0.4404,0.39424 h -9.9821 c -0.24312,0 -0.4404,-0.17656 -0.4404,-0.39424 0,-0.21768 0.19728,-0.39423 0.4404,-0.39423 h 9.9821 c 0.24317,0 0.4404,0.17655 0.4404,0.39423 z"
       inkscape:connector-curvature="0"
       style="fill:#000080;stroke-width:0.10810807" />
    <path
       sodipodi:nodetypes="sssssssss"
       inkscape:connector-curvature="0"
       id="path4484"
       d="m 276.96129,608.3899 c 0,0 1.76339,-0.74319 3.61904,-1.81675 0.0781,-0.0452 0.74648,-0.75117 0.7668,-0.66371 1.5444,6.64907 4.79636,12.90369 9.5358,17.94886 0.0634,0.0675 -0.0459,0.13111 -0.0672,0.21769 -0.4052,1.64892 -1.06871,2.96145 -3.61904,1.81674 -0.0864,-0.0388 -0.20825,0.0196 -0.23351,-0.0667 -1.8929,-6.47412 -5.47826,-12.49916 -10.95355,-17.17492 -0.071,-0.0606 0.86177,-0.22986 0.95164,-0.26117 z"
       style="fill:#000000;fill-rule:evenodd;stroke:#000000;stroke-width:0.06615067px;stroke-linecap:butt;stroke-linejoin:round;stroke-opacity:1" />
  </g>
</svg>
