<svg width="35" height="36" viewBox="0 0 35 36" fill="none" xmlns="http://www.w3.org/2000/svg">
<path fill-rule="evenodd" clip-rule="evenodd" d="M10.9375 2.85791H13.125V7.23291H15.3125V2.85791H17.5V7.23291H19.6875V2.85791H21.875V7.23291H24.0625L26.25 9.42041V11.6079H30.625V13.7954H26.25V15.9829H30.625V18.1704H26.25V20.3579H30.625V22.5454H26.25V24.7329L24.0625 26.9204H21.875V31.2954H19.6875V26.9204H17.5V31.2954H15.3125V26.9204H13.125V31.2954H10.9375V26.9204H8.75L6.5625 24.7329V22.5454H2.1875V20.3579H6.5625V18.1704H2.1875V15.9829H6.5625V13.7954H2.1875V11.6079H6.5625V9.42041L8.75 7.23291H10.9375V2.85791ZM8.75 24.7329H24.0625V9.42041H8.75V24.7329Z" fill="black"/>
</svg>
