<svg width="36" height="36" viewBox="0 0 36 36" fill="none" xmlns="http://www.w3.org/2000/svg">
<path d="M28.3459 20.1875H22.6803C21.934 20.1913 21.2194 20.4896 20.6918 21.0175C20.1642 21.5453 19.8663 22.2601 19.8628 23.0064V28.6721C19.8628 29.4193 20.1597 30.136 20.688 30.6643C21.2164 31.1927 21.9331 31.4896 22.6803 31.4896H28.3459C29.0931 31.4892 29.8095 31.1922 30.3378 30.6639C30.8661 30.1356 31.163 29.4192 31.1634 28.6721V23.0064C31.1634 22.2592 30.8666 21.5426 30.3382 21.0142C29.8098 20.4858 29.0932 20.1889 28.3459 20.1889M28.3459 4.51041H7.00177C6.63177 4.51041 6.26539 4.58328 5.92355 4.72488C5.58172 4.86647 5.27112 5.074 5.00949 5.33563C4.74786 5.59726 4.54033 5.90786 4.39873 6.2497C4.25714 6.59153 4.18427 6.95791 4.18427 7.32791V12.9935C4.18407 13.3637 4.25681 13.7302 4.39832 14.0722C4.53982 14.4142 4.74733 14.725 5.00898 14.9867C5.27062 15.2485 5.58129 15.4562 5.92322 15.5979C6.26515 15.7396 6.63164 15.8125 7.00177 15.8125H28.3459C29.0932 15.8125 29.8098 15.5156 30.3382 14.9873C30.8666 14.4589 31.1634 13.7422 31.1634 12.995V7.32791C31.1634 6.58066 30.8666 5.86402 30.3382 5.33563C29.8098 4.80725 29.0932 4.51041 28.3459 4.51041ZM12.6674 20.1875H7.00177C6.63164 20.1875 6.26515 20.2604 5.92322 20.4021C5.58129 20.5438 5.27062 20.7514 5.00898 21.0132C4.74733 21.275 4.53982 21.5858 4.39832 21.9278C4.25681 22.2698 4.18407 22.6363 4.18427 23.0064V28.6721C4.18427 29.4193 4.48111 30.136 5.00949 30.6643C5.53788 31.1927 6.25452 31.4896 7.00177 31.4896H12.6674C13.4146 31.4896 14.1313 31.1927 14.6597 30.6643C15.188 30.136 15.4849 29.4193 15.4849 28.6721V23.0064C15.4814 22.2601 15.1835 21.5453 14.6559 21.0175C14.1283 20.4896 13.4137 20.1913 12.6674 20.1875Z" stroke="black" stroke-width="2.1875" stroke-linecap="round" stroke-linejoin="round"/>
</svg>
