<svg width="35" height="36" viewBox="0 0 35 36" fill="none" xmlns="http://www.w3.org/2000/svg">
<path d="M23.8729 19.3225C23.6948 19.2516 23.5045 19.2166 23.3128 19.2192C23.1211 19.2219 22.9319 19.2624 22.7558 19.3382C22.5798 19.414 22.4204 19.5238 22.2868 19.6612C22.1532 19.7987 22.0479 19.9611 21.9771 20.1392C21.9062 20.3173 21.8711 20.5076 21.8738 20.6993C21.8765 20.8909 21.9169 21.0802 21.9928 21.2562C22.0686 21.4323 22.1784 21.5916 22.3158 21.7253C22.4532 21.8589 22.6156 21.9641 22.7937 22.035C24.9229 22.8808 26.25 24.1933 26.25 25.4621C26.25 27.5329 22.6625 29.8371 17.5 29.8371C12.3375 29.8371 8.74998 27.5329 8.74998 25.4621C8.74998 24.1933 10.0771 22.8808 12.2062 22.035C12.5659 21.8919 12.854 21.6118 13.0072 21.2562C13.1604 20.9007 13.166 20.4989 13.0229 20.1392C12.8798 19.7795 12.5997 19.4913 12.2441 19.3382C11.8886 19.185 11.4868 19.1794 11.1271 19.3225C7.81665 20.635 5.83331 22.9246 5.83331 25.4621C5.83331 29.5454 10.9521 32.7537 17.5 32.7537C24.0479 32.7537 29.1666 29.5454 29.1666 25.4621C29.1666 22.9246 27.1833 20.635 23.8729 19.3225ZM16.0416 15.0496V25.4621C16.0416 25.8489 16.1953 26.2198 16.4688 26.4933C16.7423 26.7668 17.1132 26.9204 17.5 26.9204C17.8868 26.9204 18.2577 26.7668 18.5312 26.4933C18.8047 26.2198 18.9583 25.8489 18.9583 25.4621V15.0496C20.333 14.6946 21.5311 13.8505 22.3279 12.6754C23.1248 11.5003 23.4657 10.0749 23.2868 8.66645C23.1079 7.25798 22.4215 5.96309 21.3562 5.02453C20.2908 4.08596 18.9198 3.56815 17.5 3.56815C16.0802 3.56815 14.7091 4.08596 13.6438 5.02453C12.5785 5.96309 11.892 7.25798 11.7131 8.66645C11.5342 10.0749 11.8752 11.5003 12.672 12.6754C13.4689 13.8505 14.6669 14.6946 16.0416 15.0496ZM17.5 6.50375C18.0768 6.50375 18.6407 6.67481 19.1204 6.99529C19.6 7.31578 19.9739 7.7713 20.1946 8.30425C20.4154 8.8372 20.4731 9.42365 20.3606 9.98943C20.2481 10.5552 19.9703 11.0749 19.5624 11.4828C19.1545 11.8907 18.6348 12.1685 18.069 12.281C17.5032 12.3936 16.9168 12.3358 16.3838 12.1151C15.8509 11.8943 15.3953 11.5205 15.0749 11.0408C14.7544 10.5612 14.5833 9.99728 14.5833 9.42041C14.5833 8.64686 14.8906 7.905 15.4376 7.35802C15.9846 6.81104 16.7264 6.50375 17.5 6.50375Z" fill="black"/>
</svg>
