<svg width="35" height="36" viewBox="0 0 35 36" fill="none" xmlns="http://www.w3.org/2000/svg">
<path d="M32.8104 8.32578C32.8104 9.04385 32.4144 9.75489 31.645 10.4183C30.8756 11.0817 29.7478 11.6845 28.3261 12.1923C26.9044 12.7 25.2166 13.1028 23.359 13.3776C21.5015 13.6524 19.5106 13.7938 17.5 13.7938C13.4394 13.7938 9.54511 13.2177 6.67384 12.1923C3.80258 11.1668 2.18951 9.77599 2.18951 8.32578C2.18951 7.60771 2.58553 6.89667 3.35495 6.23326C4.12438 5.56985 5.25214 4.96706 6.67384 4.4593C8.09555 3.95155 9.78336 3.54878 11.6409 3.27399C13.4985 2.99919 15.4894 2.85776 17.5 2.85776C19.5106 2.85776 21.5015 2.99919 23.359 3.27399C25.2166 3.54878 26.9044 3.95155 28.3261 4.4593C29.7478 4.96706 30.8756 5.56985 31.645 6.23326C32.4144 6.89667 32.8104 7.60771 32.8104 8.32578Z" stroke="black" stroke-width="2.1875" stroke-linecap="round" stroke-linejoin="round"/>
<path d="M32.8104 28.0107C32.8104 28.9705 32.103 29.9134 30.7592 30.7447C29.4154 31.5759 27.4827 32.2662 25.1552 32.7461C22.8277 33.226 20.1875 33.4787 17.5 33.4787C14.8124 33.4787 12.1722 33.226 9.84474 32.7461C7.51726 32.2662 5.5845 31.5759 4.24073 30.7447C2.89695 29.9134 2.18951 28.9705 2.18951 28.0107" stroke="black" stroke-width="2.1875" stroke-linecap="round" stroke-linejoin="round"/>
<path d="M32.8104 21.449C32.8104 22.4089 32.103 23.3518 30.7592 24.183C29.4154 25.0143 27.4827 25.7046 25.1552 26.1845C22.8277 26.6644 20.1875 26.9171 17.5 26.9171C14.8124 26.9171 12.1722 26.6644 9.84474 26.1845C7.51726 25.7046 5.5845 25.0143 4.24073 24.183C2.89695 23.3518 2.18951 22.4089 2.18951 21.449" stroke="black" stroke-width="2.1875" stroke-linecap="round" stroke-linejoin="round"/>
<path d="M32.8104 14.8874C32.8104 15.8472 32.103 16.7902 30.7592 17.6214C29.4154 18.4527 27.4827 19.1429 25.1552 19.6229C22.8277 20.1028 20.1875 20.3554 17.5 20.3554C14.8124 20.3554 12.1722 20.1028 9.84474 19.6229C7.51726 19.1429 5.5845 18.4527 4.24073 17.6214C2.89695 16.7902 2.18951 15.8472 2.18951 14.8874" stroke="black" stroke-width="2.1875" stroke-linecap="round" stroke-linejoin="round"/>
<path d="M2.18951 8.32581V28.0107" stroke="black" stroke-width="2.1875" stroke-linecap="round" stroke-linejoin="round"/>
<path d="M32.8104 8.32578V28.0107" stroke="black" stroke-width="2.1875" stroke-linecap="round" stroke-linejoin="round"/>
</svg>
