<svg width="45" height="46" viewBox="0 0 45 46" fill="none" xmlns="http://www.w3.org/2000/svg">
<path d="M22.5 13.7588V26.8242M22.5 26.8242L28.125 21.2247M22.5 26.8242L16.875 21.2247" stroke="#19CBF2" stroke-width="3.125" stroke-linecap="round" stroke-linejoin="round"/>
<path d="M30 32.4237H15M41.25 23.0912C41.25 31.8899 41.25 36.2892 38.5031 39.0217C35.76 41.7561 31.3387 41.7561 22.5 41.7561C13.6612 41.7561 9.24187 41.7561 6.495 39.0217C3.75 36.291 3.75 31.8899 3.75 23.0912C3.75 14.2926 3.75 9.89328 6.495 7.15888C9.24375 4.42634 13.6612 4.42634 22.5 4.42634C31.3387 4.42634 35.7581 4.42634 38.5031 7.15888C40.3294 8.97684 40.9406 11.5321 41.1469 15.6253" stroke="#19CBF2" stroke-width="3.125" stroke-linecap="round"/>
</svg>
