<svg width="48" height="45" viewBox="0 0 48 45" fill="none" xmlns="http://www.w3.org/2000/svg">
<path d="M42.5912 22.5H18.2906M9.71316 22.5H6.20428M9.71316 22.5C9.71316 21.4159 10.1649 20.3762 10.969 19.6097C11.7731 18.8431 12.8637 18.4125 14.0009 18.4125C15.1381 18.4125 16.2287 18.8431 17.0328 19.6097C17.8369 20.3762 18.2887 21.4159 18.2887 22.5C18.2887 23.584 17.8369 24.6237 17.0328 25.3903C16.2287 26.1568 15.1381 26.5875 14.0009 26.5875C12.8637 26.5875 11.7731 26.1568 10.969 25.3903C10.1649 24.6237 9.71316 23.584 9.71316 22.5ZM42.5912 34.8881H31.2857M31.2857 34.8881C31.2857 35.9724 30.8328 37.0133 30.0285 37.78C29.2242 38.5467 28.1334 38.9775 26.9959 38.9775C25.8588 38.9775 24.7682 38.545 23.9641 37.7784C23.1599 37.0118 22.7082 35.9722 22.7082 34.8881M31.2857 34.8881C31.2857 33.8038 30.8328 32.7648 30.0285 31.9981C29.2242 31.2313 28.1334 30.8006 26.9959 30.8006C25.8588 30.8006 24.7682 31.2312 23.9641 31.9978C23.1599 32.7644 22.7082 33.804 22.7082 34.8881M22.7082 34.8881H6.20428M42.5912 10.1119H36.4841M27.9066 10.1119H6.20428M27.9066 10.1119C27.9066 9.02778 28.3583 7.98811 29.1625 7.22155C29.9666 6.455 31.0572 6.02435 32.1944 6.02435C32.7574 6.02435 33.315 6.13008 33.8352 6.3355C34.3554 6.54091 34.8281 6.84199 35.2263 7.22155C35.6244 7.60111 35.9402 8.05172 36.1557 8.54763C36.3712 9.04355 36.4821 9.57507 36.4821 10.1119C36.4821 10.6486 36.3712 11.1802 36.1557 11.6761C35.9402 12.172 35.6244 12.6226 35.2263 13.0022C34.8281 13.3817 34.3554 13.6828 33.8352 13.8882C33.315 14.0936 32.7574 14.1994 32.1944 14.1994C31.0572 14.1994 29.9666 13.7687 29.1625 13.0022C28.3583 12.2356 27.9066 11.1959 27.9066 10.1119Z" stroke="black" stroke-width="3.125" stroke-miterlimit="10" stroke-linecap="round"/>
</svg>
