<?xml version="1.0" standalone="no"?>
<!DOCTYPE svg PUBLIC "-//W3C//DTD SVG 20010904//EN"
 "http://www.w3.org/TR/2001/REC-SVG-20010904/DTD/svg10.dtd">
<svg version="1.0" xmlns="http://www.w3.org/2000/svg"
 width="512.000000pt" height="512.000000pt" viewBox="0 0 512.000000 512.000000"
 preserveAspectRatio="xMidYMid meet">

<g transform="translate(0.000000,512.000000) scale(0.100000,-0.100000)"
fill="#000000" stroke="none">
<path d="M1882 4478 c-66 -28 -122 -74 -185 -148 -40 -49 -54 -58 -89 -63 -64
-9 -162 -62 -207 -114 -23 -25 -53 -71 -68 -102 l-28 -56 -5 -690 -6 -690
-118 -595 c-116 -584 -118 -596 -107 -663 21 -131 96 -230 216 -287 43 -21 70
-41 85 -64 29 -49 85 -95 150 -125 l55 -26 415 -5 415 -5 205 -82 c294 -117
334 -128 460 -128 87 0 113 4 153 22 64 30 120 75 169 137 37 46 46 52 100 63
76 15 131 48 192 112 68 74 88 126 95 246 l6 100 211 5 210 5 76 38 c83 41
143 99 183 177 41 81 47 138 43 395 -4 268 -11 299 -84 398 -37 51 -132 119
-193 138 -20 7 -126 14 -239 16 -183 4 -202 6 -198 21 3 10 55 276 117 592 94
486 110 585 106 643 -9 130 -93 249 -215 305 -31 14 -61 32 -66 41 -26 44
-115 124 -165 148 l-56 28 -415 5 -415 5 -197 83 c-295 124 -326 133 -448 138
-93 4 -111 2 -158 -18z m317 -164 c42 -13 83 -28 91 -34 10 -6 -59 -10 -212
-10 -126 0 -228 2 -228 4 0 9 73 49 113 62 54 18 138 10 236 -22z m1306 -213
c22 -10 52 -31 67 -47 60 -64 58 -36 58 -833 l0 -730 -702 -3 c-703 -3 -703
-3 -758 -25 -102 -42 -192 -132 -232 -233 -20 -50 -22 -77 -26 -296 -4 -272 4
-327 61 -423 41 -68 95 -115 177 -155 l65 -31 708 -3 707 -3 0 -75 c0 -115
-39 -185 -125 -225 -38 -18 -86 -19 -961 -19 l-922 0 -53 28 c-39 20 -62 41
-84 77 l-30 48 0 1407 0 1407 30 48 c22 36 45 57 84 77 l53 28 922 0 c875 0
923 -1 961 -19z m312 -243 c36 -39 53 -85 53 -140 0 -51 -74 -455 -85 -466 -3
-3 -5 137 -5 311 0 175 4 317 8 317 5 0 18 -10 29 -22z m388 -1537 c60 -27
101 -66 129 -123 26 -52 26 -54 26 -292 0 -232 -1 -243 -24 -291 -28 -60 -66
-97 -126 -124 -44 -20 -61 -21 -1001 -21 l-957 0 -53 28 c-61 32 -113 94 -129
153 -7 25 -10 128 -8 272 3 226 4 234 28 281 29 56 80 101 136 121 32 12 207
14 989 14 898 1 952 0 990 -18z m-2905 -773 c0 -319 0 -321 -20 -303 -29 26
-70 114 -70 149 0 29 82 476 87 476 2 0 3 -145 3 -322z m1924 -709 c-3 -6 -27
-20 -51 -31 -66 -29 -176 -26 -280 7 -46 14 -83 28 -83 30 0 3 95 5 211 5 152
0 208 -3 203 -11z"/>
<path d="M1845 3803 c-36 -9 -55 -34 -55 -74 0 -73 -41 -69 756 -69 l713 0 20
26 c36 46 23 94 -30 113 -32 11 -1360 15 -1404 4z"/>
<path d="M1816 3368 c-36 -33 -39 -75 -6 -108 20 -20 33 -20 730 -20 l711 0
24 25 c30 29 32 64 6 96 l-19 24 -710 3 -710 2 -26 -22z"/>
<path d="M1823 2958 c-48 -23 -46 -104 3 -127 18 -8 221 -11 725 -11 l700 0
24 25 c32 31 32 69 0 100 l-24 25 -703 -1 c-474 0 -710 -4 -725 -11z"/>
<path d="M3007 2190 c-139 -35 -201 -123 -201 -285 0 -98 17 -152 68 -212 77
-91 280 -111 387 -37 35 24 89 107 89 137 0 10 -24 22 -71 37 -39 12 -72 20
-74 18 -2 -2 -10 -20 -18 -40 -31 -75 -133 -89 -181 -25 -18 24 -21 43 -21
117 0 98 15 132 70 159 38 18 99 0 122 -37 9 -15 18 -29 19 -31 2 -2 37 4 78
13 l75 17 -10 28 c-16 46 -75 107 -121 126 -51 20 -159 28 -211 15z"/>
<path d="M2520 1905 l0 -285 90 0 90 0 0 285 0 285 -90 0 -90 0 0 -285z"/>
<path d="M3440 1905 l0 -287 178 4 c197 4 231 13 287 79 35 42 45 70 55 144
14 113 -16 230 -72 281 -57 53 -82 58 -270 62 l-178 4 0 -287z m290 137 c41
-20 59 -61 59 -137 2 -113 -32 -155 -124 -155 l-45 0 0 155 0 155 38 0 c20 0
53 -8 72 -18z"/>
</g>
</svg>
