<svg width="35" height="36" viewBox="0 0 35 36" fill="none" xmlns="http://www.w3.org/2000/svg">
<path d="M6.5625 5.04492V15.0768L21.875 30.3893L31.9069 20.3574L16.5944 5.04492H6.5625ZM4.375 5.04492C4.375 4.46476 4.60547 3.90836 5.0157 3.49813C5.42594 3.08789 5.98234 2.85742 6.5625 2.85742H16.5944C17.1745 2.85755 17.7308 3.0881 18.1409 3.49836L33.4534 18.8109C33.8635 19.2211 34.0939 19.7774 34.0939 20.3574C34.0939 20.9375 33.8635 21.4938 33.4534 21.904L23.4216 31.9359C23.0113 32.346 22.455 32.5763 21.875 32.5763C21.295 32.5763 20.7387 32.346 20.3284 31.9359L5.01594 16.6234C4.60567 16.2132 4.37512 15.6569 4.375 15.0768V5.04492Z" fill="black"/>
<path d="M12.0312 11.6074C11.7412 11.6074 11.463 11.4922 11.2579 11.2871C11.0527 11.082 10.9375 10.8038 10.9375 10.5137C10.9375 10.2236 11.0527 9.94539 11.2579 9.74027C11.463 9.53516 11.7412 9.41992 12.0312 9.41992C12.3213 9.41992 12.5995 9.53516 12.8046 9.74027C13.0098 9.94539 13.125 10.2236 13.125 10.5137C13.125 10.8038 13.0098 11.082 12.8046 11.2871C12.5995 11.4922 12.3213 11.6074 12.0312 11.6074ZM12.0312 13.7949C12.9015 13.7949 13.7361 13.4492 14.3514 12.8339C14.9668 12.2185 15.3125 11.3839 15.3125 10.5137C15.3125 9.64343 14.9668 8.80883 14.3514 8.19348C13.7361 7.57812 12.9015 7.23242 12.0312 7.23242C11.161 7.23242 10.3264 7.57812 9.71106 8.19348C9.0957 8.80883 8.75 9.64343 8.75 10.5137C8.75 11.3839 9.0957 12.2185 9.71106 12.8339C10.3264 13.4492 11.161 13.7949 12.0312 13.7949ZM2.1875 16.1705C2.18762 16.7507 2.41817 17.307 2.82844 17.7171L19.1406 34.0293L19.0466 34.1234C18.6363 34.5335 18.08 34.7638 17.5 34.7638C16.92 34.7638 16.3637 34.5335 15.9534 34.1234L0.640938 18.8109C0.230673 18.4007 0.000123894 17.8444 0 17.2643L0 7.23242C0 6.65226 0.230468 6.09586 0.640704 5.68563C1.05094 5.27539 1.60734 5.04492 2.1875 5.04492V16.1705Z" fill="black"/>
</svg>
