<svg width="35" height="35" viewBox="0 0 35 35" fill="none" xmlns="http://www.w3.org/2000/svg">
<path d="M17.5001 30.2602C17.2101 30.2602 16.9319 30.1449 16.7267 29.9398C16.5216 29.7347 16.4064 29.4565 16.4064 29.1664C16.4064 28.8763 16.5216 28.5981 16.7267 28.393C16.9319 28.1879 17.2101 28.0727 17.5001 28.0727C20.3043 28.0727 22.9935 26.9587 24.9763 24.9759C26.9591 22.9931 28.0731 20.3039 28.0731 17.4997C28.0731 14.6956 26.9591 12.0064 24.9763 10.0236C22.9935 8.04076 20.3043 6.92683 17.5001 6.92683C17.2101 6.92683 16.9319 6.8116 16.7267 6.60648C16.5216 6.40136 16.4064 6.12316 16.4064 5.83308C16.4064 5.543 16.5216 5.2648 16.7267 5.05968C16.9319 4.85456 17.2101 4.73933 17.5001 4.73933C20.8844 4.73933 24.1301 6.08373 26.5231 8.47677C28.9162 10.8698 30.2606 14.1155 30.2606 17.4997C30.2606 20.884 28.9162 24.1297 26.5231 26.5227C24.1301 28.9158 20.8844 30.2602 17.5001 30.2602Z" fill="black"/>
<path d="M10.9814 21.1018C11.1746 21.3092 11.2798 21.5834 11.2748 21.8668C11.2698 22.1501 11.155 22.4205 10.9546 22.6209C10.7542 22.8213 10.4838 22.9361 10.2005 22.9411C9.91713 22.9461 9.6429 22.8409 9.43556 22.6477L5.06056 18.2727C4.85573 18.0676 4.74069 17.7896 4.74069 17.4998C4.74069 17.2099 4.85573 16.9319 5.06056 16.7268L9.43556 12.3518C9.53569 12.2444 9.65644 12.1582 9.79061 12.0984C9.92477 12.0386 10.0696 12.0065 10.2165 12.0039C10.3633 12.0013 10.5092 12.0283 10.6454 12.0833C10.7816 12.1383 10.9053 12.2202 11.0092 12.3241C11.113 12.4279 11.1949 12.5517 11.2499 12.6878C11.3049 12.824 11.3319 12.9699 11.3293 13.1168C11.3267 13.2636 11.2946 13.4085 11.2348 13.5426C11.175 13.6768 11.0889 13.7975 10.9814 13.8977L8.47306 16.406H20.4168C20.7069 16.406 20.9851 16.5212 21.1902 16.7264C21.3953 16.9315 21.5106 17.2097 21.5106 17.4998C21.5106 17.7898 21.3953 18.068 21.1902 18.2732C20.9851 18.4783 20.7069 18.5935 20.4168 18.5935H8.47306L10.9814 21.1018Z" fill="black"/>
</svg>
