<svg width="18" height="26" viewBox="0 0 18 26" fill="none" xmlns="http://www.w3.org/2000/svg">
<path d="M9 12.375C8.1712 12.375 7.37634 12.0458 6.79029 11.4597C6.20424 10.8737 5.875 10.0788 5.875 9.25C5.875 8.4212 6.20424 7.62634 6.79029 7.04029C7.37634 6.45424 8.1712 6.125 9 6.125C9.8288 6.125 10.6237 6.45424 11.2097 7.04029C11.7958 7.62634 12.125 8.4212 12.125 9.25C12.125 9.66038 12.0442 10.0667 11.8871 10.4459C11.7301 10.825 11.4999 11.1695 11.2097 11.4597C10.9195 11.7499 10.575 11.9801 10.1959 12.1371C9.81674 12.2942 9.41038 12.375 9 12.375ZM9 0.5C6.67936 0.5 4.45376 1.42187 2.81282 3.06282C1.17187 4.70376 0.25 6.92936 0.25 9.25C0.25 15.8125 9 25.5 9 25.5C9 25.5 17.75 15.8125 17.75 9.25C17.75 6.92936 16.8281 4.70376 15.1872 3.06282C13.5462 1.42187 11.3206 0.5 9 0.5Z" fill="#FF0000"/>
</svg>
