<svg width="35" height="36" viewBox="0 0 35 36" fill="none" xmlns="http://www.w3.org/2000/svg">
<path d="M29.1666 32.7537V28.3787C29.1666 24.2546 29.1666 22.191 27.8848 20.9106C26.6044 19.6287 24.5408 19.6287 20.4166 19.6287L17.5 22.5454L14.5833 19.6287C10.4591 19.6287 8.39561 19.6287 7.11519 20.9106C5.83331 22.191 5.83331 24.2546 5.83331 28.3787V32.7537M23.3333 19.6287V27.6496" stroke="black" stroke-width="2.1875" stroke-linecap="round" stroke-linejoin="round"/>
<path d="M12.3958 19.6287V25.4621M12.3958 25.4621C13.1693 25.4621 13.9112 25.7694 14.4582 26.3163C15.0052 26.8633 15.3125 27.6052 15.3125 28.3787V29.8371M12.3958 25.4621C11.6222 25.4621 10.8804 25.7694 10.3334 26.3163C9.78642 26.8633 9.47913 27.6052 9.47913 28.3787V29.8371M22.6041 10.1496V8.69124C22.6041 8.02095 22.4721 7.35723 22.2156 6.73796C21.9591 6.11869 21.5831 5.55602 21.1092 5.08205C20.6352 4.60808 20.0725 4.23211 19.4532 3.97561C18.834 3.7191 18.1702 3.58707 17.5 3.58707C16.8297 3.58707 16.1659 3.7191 15.5467 3.97561C14.9274 4.23211 14.3647 4.60808 13.8908 5.08205C13.4168 5.55602 13.0408 6.11869 12.7843 6.73796C12.5278 7.35723 12.3958 8.02095 12.3958 8.69124V10.1496C12.3958 10.8199 12.5278 11.4836 12.7843 12.1029C13.0408 12.7221 13.4168 13.2848 13.8908 13.7588C14.3647 14.2327 14.9274 14.6087 15.5467 14.8652C16.1659 15.1217 16.8297 15.2537 17.5 15.2537C18.1702 15.2537 18.834 15.1217 19.4532 14.8652C20.0725 14.6087 20.6352 14.2327 21.1092 13.7588C21.5831 13.2848 21.9591 12.7221 22.2156 12.1029C22.4721 11.4836 22.6041 10.8199 22.6041 10.1496ZM24.427 28.7433C24.427 29.0334 24.3118 29.3116 24.1067 29.5167C23.9016 29.7218 23.6234 29.8371 23.3333 29.8371C23.0432 29.8371 22.765 29.7218 22.5599 29.5167C22.3548 29.3116 22.2395 29.0334 22.2395 28.7433C22.2395 28.4532 22.3548 28.175 22.5599 27.9699C22.765 27.7648 23.0432 27.6496 23.3333 27.6496C23.6234 27.6496 23.9016 27.7648 24.1067 27.9699C24.3118 28.175 24.427 28.4532 24.427 28.7433Z" stroke="black" stroke-width="2.1875" stroke-linecap="round" stroke-linejoin="round"/>
</svg>
