<svg width="35" height="36" viewBox="0 0 35 36" fill="none" xmlns="http://www.w3.org/2000/svg">
<path fill-rule="evenodd" clip-rule="evenodd" d="M16.3319 4.44312C16.6892 4.24469 17.0912 4.14056 17.5 4.14056C17.9088 4.14056 18.3108 4.24469 18.6681 4.44312L29.1681 10.2765C29.9323 10.7008 30.4062 11.5058 30.4062 12.3808V23.96C30.4062 24.835 29.9323 25.64 29.1681 26.0644L18.6681 31.8977C18.3108 32.0961 17.9088 32.2003 17.5 32.2003C17.0912 32.2003 16.6892 32.0961 16.3319 31.8977L5.83187 26.0644C5.45653 25.8559 5.14379 25.5509 4.92608 25.1809C4.70837 24.8109 4.59363 24.3893 4.59375 23.96V12.3808C4.59375 11.5058 5.06771 10.7008 5.83187 10.2765L16.3319 4.44312ZM17.6065 6.35645C17.5739 6.33832 17.5373 6.3288 17.5 6.3288C17.4627 6.3288 17.4261 6.33832 17.3935 6.35645L6.89354 12.1898C6.85972 12.2086 6.83151 12.2361 6.81178 12.2694C6.79205 12.3027 6.78152 12.3407 6.78125 12.3794V23.9615C6.78125 24.0402 6.825 24.1131 6.89354 24.151L17.3935 29.9844C17.4261 30.0025 17.4627 30.012 17.5 30.012C17.5373 30.012 17.5739 30.0025 17.6065 29.9844L28.1065 24.151C28.1403 24.1322 28.1685 24.1047 28.1882 24.0714C28.2079 24.0381 28.2185 24.0002 28.2188 23.9615V12.3808C28.2187 12.3419 28.2083 12.3036 28.1886 12.27C28.1688 12.2364 28.1405 12.2087 28.1065 12.1898L17.6065 6.35645Z" fill="black"/>
<path fill-rule="evenodd" clip-rule="evenodd" d="M10.5729 18.1704C10.5729 16.3332 11.3028 14.5713 12.6018 13.2722C13.9009 11.9731 15.6628 11.2433 17.5 11.2433C19.3372 11.2433 21.0991 11.9731 22.3982 13.2722C23.6973 14.5713 24.4271 16.3332 24.4271 18.1704C24.4271 20.0076 23.6973 21.7695 22.3982 23.0686C21.0991 24.3677 19.3372 25.0975 17.5 25.0975C15.6628 25.0975 13.9009 24.3677 12.6018 23.0686C11.3028 21.7695 10.5729 20.0076 10.5729 18.1704ZM17.5 13.4308C16.243 13.4308 15.0375 13.9302 14.1486 14.819C13.2598 15.7079 12.7604 16.9134 12.7604 18.1704C12.7604 19.4274 13.2598 20.633 14.1486 21.5218C15.0375 22.4106 16.243 22.91 17.5 22.91C18.757 22.91 19.9626 22.4106 20.8514 21.5218C21.7403 20.633 22.2396 19.4274 22.2396 18.1704C22.2396 16.9134 21.7403 15.7079 20.8514 14.819C19.9626 13.9302 18.757 13.4308 17.5 13.4308Z" fill="black"/>
</svg>
